# xmcd CD database file
#
# Track frame offsets:
#	183
#	11183
#	27538
#	41953
#	63625
#	73733
#	84023
#	98588
#	109795
#	122060
#	137200
#	157845
#	172910
#	189028
#	202283
#	216740
#	229528
#	241503
#
# Disc length: 3404 seconds
#
# Revision: 0
# Processed by: cddbd v1.5.2PL0 Copyright (c) Steve Scherf et al.
# Submitted via: CDex 1.70beta2
#
DISCID=f70d4a12
DTITLE=Country - Country Stars 2 - Live at Church Street Station
DYEAR=1991
DGENRE=Country
TTITLE0=Dottie West - Rocky top
TTITLE1=Dottie West - Leavin's for unbelievers
TTITLE2=Dottie West - What are we doin' in love
TTITLE3=Dottie West - Crazy/I fall to pieces/Sweet dreams/Crazy
TTITLE4=Connie Smith - I'm only in it for the love
TTITLE5=Connie Smith - Because I love you, that's why
TTITLE6=Connie Smith - Did we have to come this far to say goodbye
TTITLE7=Connie Smith - Right or wrong
TTITLE8=Connie Smith - Once a day
TTITLE9=Barbara Fairchild - Rocky top
TTITLE10=Barbara Fairchild - Tip of my fingers
TTITLE11=Barbara Fairchild - Y'all come
TTITLE12=Barbara Fairchild - Teddy bear song
TTITLE13=Lynn Anderson - Even cowgirls get the blues
TTITLE14=Lynn Anderson - Cry
TTITLE15=Lynn Anderson - Rose garden
TTITLE16=Lynn Anderson - I've never
TTITLE17=Lynn Anderson - Where's the fire
EXTD=YEAR: 1991
EXTT0=
EXTT1=
EXTT2=
EXTT3=
EXTT4=
EXTT5=
EXTT6=
EXTT7=
EXTT8=
EXTT9=
EXTT10=
EXTT11=
EXTT12=
EXTT13=
EXTT14=
EXTT15=
EXTT16=
EXTT17=
PLAYORDER=
